<svg width="128" height="128" viewBox="0 0 128 128" fill="none" xmlns="http://www.w3.org/2000/svg">
<path fill-rule="evenodd" clip-rule="evenodd" d="M17.5808 26.9948C14.3679 33.2596 14.3679 41.4662 14.3679 57.8711V63.73C14.3679 80.1349 14.3679 88.3416 17.5808 94.6064C20.4064 100.118 24.9162 104.6 30.462 107.408C32.399 108.387 34.5171 109.069 37.0015 109.538C38.3238 109.789 39.267 110.961 39.2333 112.3L39.0902 118.398C39.0649 119.528 40.4376 120.113 41.2461 119.314L47.6425 112.97C49.2005 111.426 51.3144 110.563 53.5167 110.576C55.9548 110.601 58.6119 110.601 61.5301 110.601H67.4253C83.9321 110.601 92.1897 110.601 98.4934 107.408C104.039 104.6 108.549 100.118 111.375 94.6064C114.588 88.3416 114.588 80.1349 114.588 63.73V57.8711C114.588 41.4662 114.588 33.2596 111.375 26.9948C108.549 21.4832 104.039 17.0012 98.4934 14.1931C92.1897 11 83.9321 11 67.4253 11H61.5301C45.0233 11 36.7657 11 30.462 14.1931C24.9162 17.0012 20.4064 21.4832 17.5808 26.9948Z" fill="url(#paint0_linear)"/>
<g filter="url(#filter0_f)">
<path d="M108.871 47.7873C104.562 44.4311 98.3974 42.0622 91.0522 40.9481C89.6515 40.7346 88.2274 41.1097 87.1204 41.9845C86.017 42.8593 85.3335 44.1476 85.2372 45.5458L83.584 69.4622C83.5453 70.0045 82.7849 70.0048 82.7457 69.4634L80.746 42.1567C80.5496 39.0703 78.2236 36.6335 75.0738 36.2257C71.9017 35.8143 69.0016 37.5944 68.0171 40.5579C67.9847 40.6511 67.9561 40.7482 67.9311 40.8413L63.3527 58.3371C63.1104 59.2608 61.8719 59.2933 61.5802 58.383L56.2437 41.5769C55.3141 38.6067 52.3487 36.7263 49.1888 37.1043C46.0326 37.4822 43.6301 40.004 43.4781 43.1174L42.5484 63.6048C42.5243 64.1237 41.8089 64.1661 41.7255 63.6561L38.8057 46C38.3493 43.226 35.6991 41.3306 32.8959 41.7706C30.089 42.2106 28.1882 44.8162 28.6483 47.594L32.8375 72.9191C33.2927 76.6181 32.1664 79.1574 29.817 79.7164C27.6674 80.2269 24.6752 78.9582 23.1783 74.9684C22.1818 72.324 19.2183 70.966 16.5543 71.9309C13.8903 72.8958 12.5307 75.8207 13.5198 78.4574C16.1966 85.589 21.7737 89.2259 27.211 89.8764C28.9455 90.0825 30.6655 89.9868 32.2712 89.6021C35.3162 88.877 38.2308 87.0735 40.2887 84.2418C40.7164 83.6529 41.6216 84.0109 41.5887 84.7505L41.424 88.4097C41.3072 91.0001 43.3672 93.1959 46.0244 93.3225C48.6852 93.4375 50.9338 91.4436 51.0507 88.8532L52.1875 63.8237C52.2145 63.2313 53.007 63.1184 53.1874 63.6815L56.7579 74.9293C57.5684 77.5176 59.9688 79.2841 62.7365 79.3437C62.7588 79.3435 62.781 79.3432 62.7996 79.3431C65.6004 79.3714 68.056 77.6501 68.9184 75.0595C68.9507 74.9663 68.9757 74.8693 69.0043 74.7761L71.7193 64.4059C71.8726 63.8276 72.6821 63.908 72.7256 64.5074L74.5647 89.6292C74.743 92.0733 76.8107 93.9516 79.2779 94.0028C79.4226 94.0052 79.5673 94.0036 79.7156 93.9943C82.3695 93.8152 84.367 91.5763 84.1759 88.9892C84.1367 88.4439 84.6893 88.0897 85.1483 88.3519C85.7903 88.7205 86.5235 88.9526 87.3142 89.0062C87.4144 89.0128 87.5183 89.0156 87.6185 89.0184C90.282 89.0482 92.5303 87.0195 92.7169 84.3587L93.2113 77.2167C93.2692 76.3917 93.8927 75.7349 94.682 75.6607C109.223 74.3259 115.031 67.0346 115.505 60.7171C115.854 55.9801 113.502 51.3917 108.871 47.7873ZM95.7441 65.4203C94.8553 65.5574 94.0719 64.7995 94.1361 63.866L94.8261 53.8657C94.8938 52.9129 95.8068 52.2762 96.6744 52.5844C102.8 54.7602 105.545 57.9434 105.396 59.9536C105.254 61.8748 102.154 64.4195 95.7441 65.4203Z" fill="#013255" fill-opacity="0.2"/>
</g>
<g filter="url(#filter1_f)">
<path d="M110.482 44.6829C105.979 41.3288 99.5354 38.9628 91.8569 37.8522C90.3927 37.6394 88.9037 38.0152 87.7459 38.8905C86.5919 39.7659 85.8767 41.0545 85.7754 42.4528L84.0354 66.3701C83.9947 66.9124 83.1997 66.9131 83.159 66.3717L81.0817 39.0658C80.8779 35.9795 78.4474 33.5438 75.1546 33.1375C71.8385 32.7277 68.8058 34.5092 67.7751 37.4732C67.7412 37.5664 67.7112 37.6635 67.6851 37.7566L62.8901 55.2547C62.6363 56.1785 61.3414 56.2116 61.0369 55.3015L55.4661 38.4979C54.4957 35.5281 51.3965 33.6491 48.0927 34.0286C44.7929 34.4081 42.28 36.9311 42.1195 40.0445L41.1376 60.5325C41.1122 61.0513 40.3642 61.0941 40.2773 60.5842L37.2334 42.9294C36.7576 40.1556 33.9878 38.2614 31.057 38.7028C28.1223 39.1442 26.1339 41.7507 26.6136 44.5283L30.9808 69.8515C31.4549 73.5503 30.2761 76.0901 27.8197 76.6503C25.5721 77.1618 22.4446 75.8946 20.8816 71.9055C19.841 69.2615 16.7435 67.905 13.958 68.8712C11.1724 69.8373 9.74966 72.7629 10.7824 75.3992C13.5774 82.5295 19.4061 86.1637 25.0903 86.8116C26.9035 87.0169 28.7018 86.9204 30.3806 86.5349C33.5643 85.8083 36.6123 84.0034 38.7651 81.1707C39.2125 80.5815 40.1587 80.9392 40.124 81.6787L39.95 85.338C39.8266 87.9285 41.9792 90.1233 44.7571 90.2486C47.5387 90.3623 49.8905 88.3674 50.0139 85.7769L51.2146 60.7467C51.2432 60.1543 52.0718 60.041 52.2601 60.604L55.9874 71.8502C56.8335 74.4381 59.342 76.2034 62.2356 76.2617C62.2588 76.2615 62.2821 76.2612 62.3015 76.261C65.2296 76.288 67.7976 74.5656 68.7004 71.9745C68.7343 71.8813 68.7604 71.7842 68.7905 71.691L71.6339 61.3195C71.7945 60.7411 72.6407 60.8211 72.6859 61.4206L74.5963 86.5415C74.7815 88.9856 76.9423 90.8629 79.5216 90.9129C79.6729 90.9152 79.8241 90.9136 79.9791 90.9042C82.7537 90.7238 84.8431 88.484 84.6447 85.8969C84.6039 85.3516 85.1818 84.9971 85.6616 85.2591C86.3325 85.6274 87.099 85.8592 87.9255 85.9124C88.0303 85.919 88.1389 85.9217 88.2437 85.9245C91.0283 85.953 93.3797 83.9232 93.576 81.2622L94.0965 74.1199C94.1574 73.2949 94.8096 72.6378 95.6348 72.5633C110.837 71.2214 116.913 63.9273 117.411 57.6096C117.779 52.8723 115.322 48.2851 110.482 44.6829ZM96.7501 62.3223C95.8209 62.4599 95.0023 61.7023 95.0698 60.7688L95.796 50.7681C95.8672 49.8152 96.8221 49.1781 97.729 49.4858C104.131 51.6588 107 54.8406 106.844 56.851C106.694 58.7722 103.452 61.3184 96.7501 62.3223Z" fill="#013255" fill-opacity="0.15"/>
</g>
<path d="M110.611 43.1037C106.101 39.7591 99.6484 37.3999 91.9588 36.2928C90.4924 36.0807 89.0013 36.4554 87.8418 37.3284C86.6861 38.2014 85.9698 39.4865 85.8683 40.8808L84.1247 64.732C84.0839 65.2728 83.2878 65.2735 83.247 64.7336L81.1679 37.5035C80.964 34.4257 78.5301 31.9969 75.2325 31.5919C71.9116 31.1833 68.8744 32.9601 67.8421 35.9159C67.8081 36.0088 67.7781 36.1057 67.7519 36.1986L62.9492 53.6483C62.695 54.5696 61.3983 54.6027 61.0934 53.6951L55.5152 36.9383C54.5435 33.9767 51.4399 32.1031 48.1313 32.4817C44.8267 32.8603 42.31 35.3764 42.1492 38.4812L41.1649 58.9124C41.1394 59.4299 40.3904 59.4726 40.3033 58.9641L37.2558 41.3583C36.7795 38.5922 34.0058 36.7035 31.0707 37.1437C28.1318 37.584 26.1403 40.1834 26.6205 42.9533L30.9929 68.2061C31.4675 71.8947 30.287 74.4275 27.827 74.9862C25.5761 75.4964 22.4441 74.2329 20.879 70.2549C19.8371 67.6183 16.7352 66.2656 13.9455 67.2293C11.1559 68.1929 9.7309 71.1104 10.765 73.7393C13.5637 80.8498 19.4008 84.4737 25.0932 85.1195C26.909 85.3241 28.7099 85.2278 30.3912 84.8433C33.5795 84.1186 36.632 82.3185 38.7881 79.4936C39.2361 78.906 40.1836 79.2626 40.1489 80.0002L39.9745 83.6493C39.8508 86.2326 42.0064 88.4213 44.7883 88.5461C47.574 88.6594 49.9293 86.6698 50.053 84.0865L51.2566 59.1257C51.2852 58.5348 52.115 58.4218 52.3036 58.9833L56.0358 70.1981C56.8829 72.7789 59.3951 74.5392 62.2928 74.5972C62.3161 74.5969 62.3394 74.5967 62.3588 74.5965C65.2911 74.6232 67.863 72.9055 68.7672 70.3215C68.8012 70.2286 68.8273 70.1318 68.8574 70.0388L71.7055 59.6959C71.8662 59.1191 72.7137 59.1989 72.759 59.7967L74.6709 84.8479C74.8564 87.2852 77.0202 89.1573 79.6032 89.207C79.7547 89.2093 79.9062 89.2077 80.0614 89.1983C82.8401 89.0183 84.9326 86.7846 84.734 84.2046C84.6932 83.6609 85.2719 83.3074 85.7524 83.5686C86.4243 83.9358 87.1918 84.167 88.0196 84.2199C88.1245 84.2265 88.2333 84.2292 88.3381 84.232C91.1268 84.2603 93.4817 82.236 93.6785 79.5824L94.2 72.4599C94.261 71.6372 94.9142 70.9818 95.7406 70.9075C110.965 69.5687 117.05 62.2945 117.549 55.9943C117.918 51.2701 115.457 46.6957 110.611 43.1037ZM96.858 60.6948C95.9274 60.8321 95.1077 60.0766 95.1753 59.1457L95.9031 49.1727C95.9744 48.2225 96.9307 47.5871 97.8389 47.8939C104.251 50.0605 107.123 53.2334 106.966 55.2382C106.816 57.1541 103.57 59.6934 96.858 60.6948Z" fill="white"/>
<path d="M110.61 43.1037C106.101 39.7591 99.6482 37.3999 91.9586 36.2928C90.4922 36.0807 89.0011 36.4554 87.8415 37.3284C86.6859 38.2014 85.9696 39.4865 85.8681 40.8808L84.1244 64.732C84.0836 65.2728 83.2875 65.2735 83.2468 64.7336L81.1677 37.5035C80.9637 34.4257 78.5298 31.9969 75.2323 31.5919C71.9114 31.1833 68.8741 32.9601 67.8418 35.9159C67.8079 36.0088 67.7779 36.1057 67.7517 36.1986L62.9489 53.6483C62.6947 54.5696 61.398 54.6027 61.0931 53.6951L55.5149 36.9383C54.5433 33.9767 51.4397 32.1031 48.1311 32.4817C44.8264 32.8603 42.3098 35.3764 42.149 38.4812L41.1647 58.9124C41.1392 59.4299 40.3901 59.4726 40.3031 58.9641L37.2556 41.3583C36.7793 38.5922 34.0056 36.7035 31.0705 37.1437C28.1315 37.584 26.14 40.1834 26.6203 42.9533L30.9927 68.2061C31.4673 71.8947 30.2867 74.4275 27.8267 74.9862C25.5759 75.4964 22.4439 74.2329 20.8788 70.2549C19.8368 67.6183 16.7349 66.2656 13.9453 67.2293C11.1556 68.1929 9.73065 71.1104 10.7647 73.7393C13.5635 80.8498 19.4005 84.4737 25.0929 85.1195C26.9087 85.3241 28.7096 85.2278 30.3909 84.8433C33.5793 84.1186 36.6318 82.3185 38.7878 79.4936C39.2359 78.906 40.1834 79.2626 40.1486 80.0002L39.9742 83.6493C39.8505 86.2326 42.0061 88.4213 44.788 88.5461C47.5737 88.6594 49.9291 86.6698 50.0527 84.0865L51.2563 59.1257C51.2849 58.5348 52.1148 58.4218 52.3033 58.9833L56.0355 70.1981C56.8827 72.7789 59.3948 74.5392 62.2925 74.5972C62.3158 74.5969 62.3391 74.5967 62.3585 74.5965C65.2909 74.6232 67.8627 72.9055 68.767 70.3215C68.8009 70.2286 68.8271 70.1318 68.8571 70.0388L71.7052 59.6959C71.866 59.1191 72.7135 59.1989 72.7587 59.7967L74.6707 84.8479C74.8561 87.2852 77.0199 89.1573 79.603 89.207C79.7545 89.2093 79.9059 89.2077 80.0612 89.1983C82.8398 89.0183 84.9323 86.7846 84.7337 84.2046C84.6929 83.6609 85.2716 83.3074 85.7521 83.5686C86.424 83.9358 87.1916 84.167 88.0193 84.2199C88.1242 84.2265 88.233 84.2292 88.3379 84.232C91.1266 84.2603 93.4815 82.236 93.6782 79.5824L94.1997 72.4599C94.2608 71.6372 94.9139 70.9818 95.7403 70.9075C110.965 69.5687 117.05 62.2945 117.549 55.9943C117.918 51.2701 115.457 46.6957 110.61 43.1037ZM96.8577 60.6948C95.9272 60.8321 95.1074 60.0766 95.1751 59.1457L95.9028 49.1727C95.9742 48.2225 96.9305 47.5871 97.8386 47.8939C104.25 50.0605 107.123 53.2334 106.966 55.2382C106.816 57.1541 103.569 59.6934 96.8577 60.6948Z" fill="url(#paint1_linear)"/>
<defs>
<filter id="filter0_f" x="0.875975" y="23.8462" width="126.984" height="82.4785" filterUnits="userSpaceOnUse" color-interpolation-filters="sRGB">
<feFlood flood-opacity="0" result="BackgroundImageFix"/>
<feBlend mode="normal" in="SourceGraphic" in2="BackgroundImageFix" result="shape"/>
<feGaussianBlur stdDeviation="6.1604" result="effect1_foregroundBlur"/>
</filter>
<filter id="filter1_f" x="4.9012" y="27.5347" width="118.09" height="68.9234" filterUnits="userSpaceOnUse" color-interpolation-filters="sRGB">
<feFlood flood-opacity="0" result="BackgroundImageFix"/>
<feBlend mode="normal" in="SourceGraphic" in2="BackgroundImageFix" result="shape"/>
<feGaussianBlur stdDeviation="2.77218" result="effect1_foregroundBlur"/>
</filter>
<linearGradient id="paint0_linear" x1="64.4777" y1="11" x2="64.4777" y2="106.835" gradientUnits="userSpaceOnUse">
<stop stop-color="#93D2FF"/>
<stop offset="0.229167" stop-color="#4A9BD5"/>
<stop offset="0.7188" stop-color="#398BD7"/>
<stop offset="1" stop-color="#1960CC"/>
</linearGradient>
<linearGradient id="paint1_linear" x1="63.664" y1="31.6461" x2="64.2768" y2="89.3723" gradientUnits="userSpaceOnUse">
<stop stop-color="white" stop-opacity="0"/>
<stop offset="1" stop-color="#8DCDFC" stop-opacity="0.24"/>
</linearGradient>
</defs>
</svg>
